<?xml version="1.0" standalone="yes"?>
<svg xmlns="http://www.w3.org/2000/svg" width="475" height="386">
<path style="fill:#222122; stroke:none;" d="M0 0L0 386L324 386L324 365L335 365L335 343L345 343L345 311L356 311L356 279L367 279L367 225L356 225L356 204L345 204L345 193L302 193L302 247L291 247L291 354L259 354L259 343L270 343L270 322L281 322L281 311L270 311L270 289L281 289L281 279L270 279L270 204L259 204L259 182L227 182L227 193L216 193L216 204L194 204L194 214L184 214L184 225L173 225L173 236L162 236L162 247L151 247L151 257L140 257L140 268L119 268L119 279L108 279L108 289L76 289L76 300L22 300L22 279L32 279L32 257L43 257L43 247L54 247L54 225L65 225L65 204L76 204L76 150L86 150L86 129L97 129L97 118L108 118L108 107L119 107L119 96L162 96L162 86L216 86L216 75L237 75L237 64L259 64L259 54L291 54L291 43L302 43L302 32L324 32L324 21L335 21L335 32L443 32L443 21L453 21L453 32C457.871 32 469.349 34.1347 473.258 30.9722C478.269 26.9174 475 6.16443 475 0L0 0z"/>
<path style="fill:#787272; stroke:none;" d="M324 21L324 32L335 32L335 21L324 21z"/>
<path style="fill:#a5a1a9; stroke:none;" d="M443 21L443 32L453 32L453 21L443 21M474 30L475 31L474 30z"/>
<path style="fill:#88868e; stroke:none;" d="M474 31L475 32L474 31z"/>
<path style="fill:#5e5b5c; stroke:none;" d="M302 32L302 43L291 43L291 54L270 54L270 64L248 64L248 75L216 75L216 86L205 86L205 96L184 96L184 86L173 86L173 96L130 96L130 118L162 118L162 107L227 107L227 129L216 129L216 172L248 172L248 182L259 182L259 204L270 204L270 279L281 279L281 289L270 289L270 311L281 311L281 322L270 322L270 343L259 343L259 354L291 354L291 247L302 247L302 193L345 193L345 204L356 204L356 225L367 225L367 289L356 289L356 322L345 322L345 343L335 343L335 365L324 365L324 386L356 386L356 365L367 365L367 322L378 322L378 289L389 289L389 268L399 268L399 236L410 236L410 214L421 214L421 161L432 161L432 150L443 150L443 129L453 129L453 118L474 118L474 129L475 129L475 106L464 107L464 54L453 54L453 43L432 43L432 32L302 32z"/>
<path style="fill:#787272; stroke:none;" d="M432 32L432 43L453 43L453 54L464 54L464 107L473.971 105.397L475 86L475 32L432 32z"/>
<path style="fill:#88868e; stroke:none;" d="M259 54L259 64L270 64L270 54L259 54z"/>
<path style="fill:#787272; stroke:none;" d="M237 64L237 75L248 75L248 64L237 64z"/>
<path style="fill:#a5a1a9; stroke:none;" d="M162 86L162 96L173 96L173 86L162 86z"/>
<path style="fill:#787272; stroke:none;" d="M184 86L184 96L205 96L205 86L184 86M227 86L227 96L237 96L237 107L270 107L270 118L291 118L291 107L270 107L270 96L259 96L259 86L227 86z"/>
<path style="fill:#88868e; stroke:none;" d="M474 95L474 99L475 99L474 95M119 96L119 107L130 107L130 96L119 96z"/>
<path style="fill:#787272; stroke:none;" d="M108 107L108 150L76 150L76 204L65 204L65 225L54 225L54 247L43 247L43 257L32 257L32 268L43 268L43 279L54 279L54 289L43 289L43 300L54 300L54 289L65 289L65 279L76 279L76 289L86 289L86 279L76 279L76 268L97 268L97 257L108 257L108 247L119 247L119 236L140 236L140 225L151 225L151 204L162 204L162 172L151 172L151 182L140 182L140 150L130 150L130 139L140 139L140 129L151 129L151 150L162 150L162 139L173 139L173 150L194 150L194 161L173 161L173 182L184 182L184 172L194 172L194 161L205 161L205 182L194 182L194 193L184 193L184 214L194 214L194 193L205 193L205 204L216 204L216 182L248 182L248 172L216 172L216 129L227 129L227 107L194 107L194 118L184 118L184 107L162 107L162 118L173 118L173 129L151 129L151 118L130 118L130 107L108 107z"/>
<path style="fill:#88868e; stroke:none;" d="M184 107L184 118L194 118L194 107L184 107z"/>
<path style="fill:#5e5b5c; stroke:none;" d="M97 118L97 129L108 129L108 118L97 118z"/>
<path style="fill:#88868e; stroke:none;" d="M151 118L151 129L173 129L173 118L151 118z"/>
<path style="fill:#787272; stroke:none;" d="M453 118L453 129L443 129L443 139L453 139L453 129L464 129L464 118L453 118z"/>
<path style="fill:#88868e; stroke:none;" d="M464 118L464 129L453 129L453 139L464 139L464 129L474 129L474 118L464 118z"/>
<path style="fill:#a5a1a9; stroke:none;" d="M86 129L86 139L97 139L97 129L86 129z"/>
<path style="fill:#88868e; stroke:none;" d="M97 129L97 139L86 139L86 150L108 150L108 129L97 129z"/>
<path style="fill:#5e5b5c; stroke:none;" d="M140 129L140 139L130 139L130 150L151 150L151 129L140 129z"/>
<path style="fill:#787272; stroke:none;" d="M281 129L281 150L291 150L291 129L281 129z"/>
<path style="fill:#222122; stroke:none;" d="M464 129L464 139L453 139L453 150L432 150L432 161L421 161L421 214L410 214L410 247L399 247L399 279L389 279L389 300L378 300L378 343L367 343L367 365L356 365L356 386L475 386L475 189L475 146L473.972 130.603L464 129z"/>
<path style="fill:#a5a1a9; stroke:none;" d="M474 129L475 130L474 129z"/>
<path style="fill:#88868e; stroke:none;" d="M162 139L162 150L173 150L173 139L162 139z"/>
<path style="fill:#a5a1a9; stroke:none;" d="M443 139L443 150L453 150L453 139L443 139z"/>
<path style="fill:#88868e; stroke:none;" d="M140 150L140 161L151 161L151 150L140 150z"/>
<path style="fill:#a5a1a9; stroke:none;" d="M151 150L151 161L140 161L140 172L151 172L151 161L194 161L194 150L151 150z"/>
<path style="fill:#222122; stroke:none;" d="M313 150L313 161L324 161L324 150L313 150M335 150L335 161L345 161L345 150L335 150z"/>
<path style="fill:#5e5b5c; stroke:none;" d="M151 161L151 172L173 172L173 161L151 161z"/>
<path style="fill:#88868e; stroke:none;" d="M194 161L194 172L184 172L184 182L173 182L173 172L162 172L162 204L151 204L151 225L140 225L140 236L119 236L119 247L108 247L108 257L119 257L119 268L130 268L130 257L140 257L140 247L151 247L151 236L162 236L162 214L173 214L173 225L184 225L184 193L194 193L194 182L205 182L205 161L194 161z"/>
<path style="fill:#222122; stroke:none;" d="M356 161L356 172L367 172L367 161L356 161z"/>
<path style="fill:#88868e; stroke:none;" d="M86 172L86 182L97 182L97 172L86 172z"/>
<path style="fill:#5e5b5c; stroke:none;" d="M140 172L140 182L151 182L151 172L140 172z"/>
<path style="fill:#88868e; stroke:none;" d="M130 182L130 193L140 193L140 182L130 182z"/>
<path style="fill:#5e5b5c; stroke:none;" d="M216 182L216 193L227 193L227 182L216 182M194 193L194 204L205 204L205 193L194 193z"/>
<path style="fill:#787272; stroke:none;" d="M162 214L162 225L173 225L173 214L162 214z"/>
<path style="fill:#5e5b5c; stroke:none;" d="M108 225L108 236L119 236L119 225L108 225z"/>
<path style="fill:#a5a1a9; stroke:none;" d="M162 225L162 236L173 236L173 225L162 225M151 236L151 247L162 247L162 236L151 236z"/>
<path style="fill:#787272; stroke:none;" d="M399 236L399 247L410 247L410 236L399 236z"/>
<path style="fill:#5e5b5c; stroke:none;" d="M54 247L54 257L65 257L65 247L54 247z"/>
<path style="fill:#a5a1a9; stroke:none;" d="M119 247L119 257L130 257L130 247L119 247M140 247L140 257L151 257L151 247L140 247M97 257L97 279L86 279L86 289L108 289L108 279L119 279L119 257L97 257M130 257L130 268L140 268L140 257L130 257z"/>
<path style="fill:#88868e; stroke:none;" d="M32 268L32 289L22 289L22 300L32 300L32 289L54 289L54 279L43 279L43 268L32 268M54 268L54 279L65 279L65 268L54 268z"/>
<path style="fill:#5e5b5c; stroke:none;" d="M76 268L76 279L86 279L86 268L76 268z"/>
<path style="fill:#88868e; stroke:none;" d="M86 268L86 279L97 279L97 268L86 268z"/>
<path style="fill:#a5a1a9; stroke:none;" d="M389 268L389 279L399 279L399 268L389 268z"/>
<path style="fill:#787272; stroke:none;" d="M22 279L22 289L32 289L32 279L22 279z"/>
<path style="fill:#5e5b5c; stroke:none;" d="M65 279L65 289L54 289L54 300L65 300L65 289L76 289L76 279L65 279z"/>
<path style="fill:#787272; stroke:none;" d="M356 279L356 289L367 289L367 279L356 279z"/>
<path style="fill:#5e5b5c; stroke:none;" d="M32 289L32 300L43 300L43 289L32 289z"/>
<path style="fill:#88868e; stroke:none;" d="M65 289L65 300L76 300L76 289L65 289M378 289L378 300L389 300L389 289L378 289z"/>
<path style="fill:#787272; stroke:none;" d="M345 311L345 322L356 322L356 311L345 311M367 322L367 343L378 343L378 322L367 322z"/>
<path style="fill:#5e5b5c; stroke:none;" d="M248 354L248 375L281 375L281 365L259 365L259 354L248 354z"/>
</svg>
