<?xml version="1.0" standalone="yes"?>
<svg xmlns="http://www.w3.org/2000/svg" width="475" height="386">
<path style="fill:#f5f5f6; stroke:none;" d="M0 0L0 386L248 386L248 354L259 354L259 332L270 332L270 204L259 204L259 182L227 182L227 193L216 193L216 204L194 204L194 214L184 214L184 225L173 225L173 236L162 236L162 247L151 247L151 257L140 257L140 268L119 268L119 279L108 279L108 289L76 289L76 300L22 300L22 279L32 279L32 257L43 257L43 247L54 247L54 225L65 225L65 204L76 204L76 150L86 150L86 129L97 129L97 118L108 118L108 107L119 107L119 96L162 96L162 86L216 86L216 75L237 75L237 64L259 64L259 54L281 54L281 43L302 43L302 32L324 32L324 21L335 21L335 32L443 32L443 21L453 21L453 32C457.871 32 469.349 34.1347 473.258 30.9722C478.269 26.9174 475 6.16443 475 0L0 0z"/>
<path style="fill:#534743; stroke:none;" d="M324 21L324 32L335 32L335 21L324 21z"/>
<path style="fill:#948f99; stroke:none;" d="M443 21L443 32L453 32L453 21L443 21M474 30L475 31L474 30z"/>
<path style="fill:#5d5961; stroke:none;" d="M474 31L453 32L453 43C462.074 43 480.292 45.9947 474 31z"/>
<path style="fill:#2a2423; stroke:none;" d="M302 32L302 43L291 43L291 54L270 54L270 64L248 64L248 75L227 75L227 86L216 86L216 96L205 96L205 107L227 107L227 129L216 129L216 161L227 161L227 172L237 172L237 161L248 161L248 182L259 182L259 204L270 204L270 343L259 343L259 354L248 354L248 386L259 386L259 375L281 375L281 354L291 354L291 247L302 247L302 193L345 193L345 204L356 204L356 225L367 225L367 289L356 289L356 322L345 322L345 343L335 343L335 375L324 375L324 386L356 386L356 365L367 365L367 322L378 322L378 289L389 289L389 268L399 268L399 236L410 236L410 204L421 204L421 150L432 150L432 139L443 139L443 129L453 129L453 107L464 107L464 118L474 118L474 129L475 129L475 107L464 107L464 75L453 75L453 64L464 64L464 54L453 54L453 43L399 43L399 32L302 32z"/>
<path style="fill:#534743; stroke:none;" d="M399 32L399 43L453 43L453 32L399 32M474 41C468.881 44.8783 459.237 43 453 43L453 54L464 54L464 64L453 64L453 75L464 75L464 64L474 66L475 66L474 41z"/>
<path style="fill:#948f99; stroke:none;" d="M281 43L281 54L291 54L291 43L281 43z"/>
<path style="fill:#534743; stroke:none;" d="M389 43L389 54L399 54L399 75L421 75L421 64L410 64L410 54L399 54L399 43L389 43z"/>
<path style="fill:#5d5961; stroke:none;" d="M259 54L259 64L270 64L270 54L259 54z"/>
<path style="fill:#534743; stroke:none;" d="M237 64L237 75L248 75L248 64L237 64z"/>
<path style="fill:#5d5961; stroke:none;" d="M464 64L464 107L474 107L475 76L473.258 65.0278L464 64z"/>
<path style="fill:#534743; stroke:none;" d="M216 75L216 86L227 86L227 75L216 75z"/>
<path style="fill:#948f99; stroke:none;" d="M162 86L162 96L173 96L173 86L162 86z"/>
<path style="fill:#534743; stroke:none;" d="M173 86L173 96L184 96L184 107L205 107L205 118L184 118L184 129L173 129L173 150L205 150L205 161L216 161L216 172L205 172L205 193L194 193L194 204L184 204L184 214L194 214L194 204L216 204L216 193L227 193L227 182L237 182L237 172L248 172L248 161L237 161L237 172L227 172L227 161L216 161L216 129L227 129L227 107L205 107L205 96L216 96L216 86L173 86M227 86L227 96L248 96L248 107L281 107L281 118L259 118L259 139L270 139L270 150L281 150L281 161L291 161L291 129L281 129L281 118L291 118L291 107L281 107L281 96L270 96L270 86L227 86z"/>
<path style="fill:#5d5961; stroke:none;" d="M119 96L119 107L130 107L130 96L119 96z"/>
<path style="fill:#534743; stroke:none;" d="M130 96L130 107L108 107L108 118L97 118L97 129L108 129L108 150L97 150L97 161L86 161L86 150L76 150L76 172L97 172L97 204L86 204L86 182L76 182L76 204L65 204L65 225L54 225L54 247L43 247L43 257L32 257L32 268L65 268L65 279L54 279L54 289L43 289L43 300L54 300L54 289L65 289L65 279L76 279L76 289L86 289L86 257L108 257L108 247L119 247L119 236L130 236L130 225L140 225L140 214L151 214L151 204L162 204L162 193L130 193L130 204L119 204L119 182L130 182L130 161L140 161L140 150L151 150L151 139L162 139L162 129L140 129L140 118L151 118L151 96L130 96z"/>
<path style="fill:#2a2423; stroke:none;" d="M151 96L151 118L162 118L162 107L184 107L184 96L151 96z"/>
<path style="fill:#5d5961; stroke:none;" d="M237 96L237 107L248 107L248 96L237 96z"/>
<path style="fill:#534743; stroke:none;" d="M474 101L474 107L475 107L474 101M162 107L162 118L173 118L173 107L162 107z"/>
<path style="fill:#5d5961; stroke:none;" d="M173 107L173 118L140 118L140 129L162 129L162 139L151 139L151 150L140 150L140 161L130 161L130 182L119 182L119 204L130 204L130 193L162 193L162 204L151 204L151 214L140 214L140 225L130 225L130 236L119 236L119 247L108 247L108 257L119 257L119 247L130 247L130 257L140 257L140 247L151 247L151 236L162 236L162 225L184 225L184 204L194 204L194 193L205 193L205 182L194 182L194 172L216 172L216 161L205 161L205 150L194 150L194 172L184 172L184 161L173 161L173 172L162 172L162 182L140 182L140 161L151 161L151 150L173 150L173 129L184 129L184 118L205 118L205 107L173 107M270 107L270 118L281 118L281 107L270 107z"/>
<path style="fill:#534743; stroke:none;" d="M453 107L453 118L464 118L464 107L453 107z"/>
<path style="fill:#5d5961; stroke:none;" d="M119 118L119 129L130 129L130 118L119 118M453 118L453 129L443 129L443 139L464 139L464 129L474 129L474 118L453 118z"/>
<path style="fill:#948f99; stroke:none;" d="M86 129L86 150L97 150L97 129L86 129z"/>
<path style="fill:#5d5961; stroke:none;" d="M97 129L97 150L108 150L108 129L97 129z"/>
<path style="fill:#f5f5f6; stroke:none;" d="M464 129L464 139L453 139L453 150L432 150L432 161L421 161L421 214L410 214L410 247L399 247L399 279L389 279L389 300L378 300L378 343L367 343L367 365L356 365L356 386L475 386L475 189L475 146L473.972 130.603L464 129z"/>
<path style="fill:#948f99; stroke:none;" d="M474 129L475 130L474 129z"/>
<path style="fill:#2a2423; stroke:none;" d="M130 139L130 150L140 150L140 139L130 139z"/>
<path style="fill:#534743; stroke:none;" d="M432 139L432 150L443 150L443 139L432 139z"/>
<path style="fill:#948f99; stroke:none;" d="M443 139L443 150L453 150L453 139L443 139z"/>
<path style="fill:#5d5961; stroke:none;" d="M86 150L86 161L97 161L97 150L86 150z"/>
<path style="fill:#948f99; stroke:none;" d="M151 150L151 161L140 161L140 172L151 172L151 161L194 161L194 150L151 150z"/>
<path style="fill:#534743; stroke:none;" d="M248 150L248 161L259 161L259 150L248 150M421 150L421 161L432 161L432 150L421 150M151 161L151 182L162 182L162 172L173 172L173 161L151 161M184 161L184 172L194 172L194 161L184 161z"/>
<path style="fill:#5d5961; stroke:none;" d="M76 172L76 182L86 182L86 204L97 204L97 172L76 172z"/>
<path style="fill:#2a2423; stroke:none;" d="M140 172L140 182L151 182L151 172L140 172z"/>
<path style="fill:#534743; stroke:none;" d="M173 172L173 182L184 182L184 172L173 172z"/>
<path style="fill:#948f99; stroke:none;" d="M194 172L194 182L205 182L205 172L194 172z"/>
<path style="fill:#5d5961; stroke:none;" d="M237 172L237 182L248 182L248 172L237 172M302 193L302 204L313 204L313 193L302 193z"/>
<path style="fill:#f5f5f6; stroke:none;" d="M313 193L313 204L302 204L302 257L291 257L291 365L281 365L281 375L270 375L270 386L313 386L313 375L324 375L324 365L335 365L335 343L345 343L345 311L356 311L356 279L367 279L367 225L356 225L356 214L345 214L345 204L335 204L335 193L313 193z"/>
<path style="fill:#948f99; stroke:none;" d="M335 193L335 204L345 204L345 193L335 193z"/>
<path style="fill:#5d5961; stroke:none;" d="M76 204L76 214L86 214L86 204L76 204M108 204L108 214L119 214L119 204L108 204z"/>
<path style="fill:#948f99; stroke:none;" d="M345 204L345 214L356 214L356 204L345 204z"/>
<path style="fill:#534743; stroke:none;" d="M410 204L410 214L421 214L421 204L410 204z"/>
<path style="fill:#948f99; stroke:none;" d="M162 225L162 236L173 236L173 225L162 225M151 236L151 247L162 247L162 236L151 236z"/>
<path style="fill:#5d5961; stroke:none;" d="M399 236L399 247L410 247L410 236L399 236z"/>
<path style="fill:#948f99; stroke:none;" d="M119 247L119 257L97 257L97 279L86 279L86 289L108 289L108 279L119 279L119 268L140 268L140 257L130 257L130 247L119 247M140 247L140 257L151 257L151 247L140 247M291 247L291 257L302 257L302 247L291 247z"/>
<path style="fill:#5d5961; stroke:none;" d="M86 257L86 279L97 279L97 257L86 257M32 268L32 289L22 289L22 300L32 300L32 289L54 289L54 279L65 279L65 268L32 268z"/>
<path style="fill:#948f99; stroke:none;" d="M389 268L389 279L399 279L399 268L389 268z"/>
<path style="fill:#534743; stroke:none;" d="M22 279L22 289L32 289L32 279L22 279z"/>
<path style="fill:#2a2423; stroke:none;" d="M65 279L65 289L54 289L54 300L65 300L65 289L76 289L76 279L65 279z"/>
<path style="fill:#534743; stroke:none;" d="M356 279L356 289L367 289L367 279L356 279z"/>
<path style="fill:#2a2423; stroke:none;" d="M32 289L32 300L43 300L43 289L32 289z"/>
<path style="fill:#948f99; stroke:none;" d="M65 289L65 300L76 300L76 289L65 289z"/>
<path style="fill:#5d5961; stroke:none;" d="M378 289L378 300L389 300L389 289L378 289M345 311L345 322L356 322L356 311L345 311z"/>
<path style="fill:#534743; stroke:none;" d="M367 322L367 343L378 343L378 322L367 322M259 332L259 343L270 343L270 332L259 332z"/>
<path style="fill:#948f99; stroke:none;" d="M281 354L281 365L291 365L291 354L281 354z"/>
<path style="fill:#534743; stroke:none;" d="M324 365L324 375L335 375L335 365L324 365M259 375L259 386L270 386L270 375L259 375z"/>
<path style="fill:#5d5961; stroke:none;" d="M313 375L313 386L324 386L324 375L313 375z"/>
</svg>
