<?xml version="1.0" standalone="yes"?>
<svg xmlns="http://www.w3.org/2000/svg" width="475" height="380">
<path style="fill:#ffffff; stroke:none;" d="M0 0L0 380L253 380L253 349L269 349L269 190L253 190L253 174L237 174L237 190L222 190L222 206L190 206L190 222L174 222L174 238L158 238L158 254L142 254L142 269L111 269L111 285L79 285L79 301L32 301L32 254L47 254L47 238L63 238L63 206L79 206L79 143L95 143L95 111L127 111L127 95L190 95L190 79L237 79L237 63L269 63L269 48L301 48L301 32L475 32L475 0L0 0z"/>
<path style="fill:#231a18; stroke:none;" d="M301 32L301 48L285 48L285 63L253 63L253 79L269 79L269 95L285 95L285 158L269 158L269 143L253 143L253 111L222 111L222 158L237 158L237 143L253 143L253 190L269 190L269 349L253 349L253 380L285 380L285 269L301 269L301 190L348 190L348 206L364 206L364 301L348 301L348 349L332 349L332 380L348 380L348 364L364 364L364 317L380 317L380 269L396 269L396 238L412 238L412 174L427 174L427 143L443 143L443 127L475 127L475 111L459 111L459 48L412 48L412 32L396 32L396 48L380 48L380 32L301 32z"/>
<path style="fill:#444048; stroke:none;" d="M380 32L380 48L396 48L396 32L380 32M412 32L412 48L443 48L443 32L412 32z"/>
<path style="fill:#675a59; stroke:none;" d="M443 32L443 48L475 48L475 32L443 32z"/>
<path style="fill:#444048; stroke:none;" d="M269 48L269 63L285 63L285 48L269 48M396 48L396 79L412 79L412 95L427 95L427 63L412 63L412 48L396 48M459 48L459 63L475 63L475 48L459 48M237 63L237 79L206 79L206 95L127 95L127 111L111 111L111 158L79 158L79 174L95 174L95 206L63 206L63 222L79 222L79 238L63 238L63 254L32 254L32 269L63 269L63 285L47 285L47 301L79 301L79 269L95 269L95 254L111 254L111 238L127 238L127 222L158 222L158 190L174 190L174 174L190 174L190 158L206 158L206 190L190 190L190 206L206 206L206 190L222 190L222 174L253 174L253 143L237 143L237 158L222 158L222 111L237 111L237 95L253 95L253 143L269 143L269 158L285 158L285 95L269 95L269 79L253 79L253 63L237 63z"/>
<path style="fill:#675a59; stroke:none;" d="M459 63L459 111L475 111L475 63L459 63M190 79L190 95L206 95L206 79L190 79M237 95L237 111L253 111L253 95L237 95z"/>
<path style="fill:#827e93; stroke:none;" d="M95 111L95 127L111 127L111 111L95 111z"/>
<path style="fill:#675a59; stroke:none;" d="M158 111L158 143L174 143L174 158L190 158L190 143L174 143L174 127L190 127L190 111L158 111M95 127L95 143L79 143L79 158L111 158L111 127L95 127z"/>
<path style="fill:#444048; stroke:none;" d="M443 127L443 143L459 143L459 127L443 127z"/>
<path style="fill:#ffffff; stroke:none;" d="M459 127L459 143L443 143L443 158L427 158L427 206L412 206L412 254L396 254L396 285L380 285L380 349L364 349L364 380L475 380L475 127L459 127z"/>
<path style="fill:#827e93; stroke:none;" d="M142 143L142 174L158 174L158 158L174 158L174 143L142 143z"/>
<path style="fill:#675a59; stroke:none;" d="M427 143L427 158L443 158L443 143L427 143M127 158L127 190L142 190L142 158L127 158M190 158L190 174L174 174L174 190L158 190L158 206L174 206L174 222L190 222L190 190L206 190L206 158L190 158M79 174L79 206L95 206L95 174L79 174M222 174L222 190L237 190L237 174L222 174M269 174L269 190L285 190L285 174L269 174M412 174L412 190L427 190L427 174L412 174M111 190L111 206L127 206L127 190L111 190M206 190L206 206L222 206L222 190L206 190z"/>
<path style="fill:#827e93; stroke:none;" d="M301 190L301 206L348 206L348 190L301 190M412 190L412 206L427 206L427 190L412 190M158 206L158 238L127 238L127 254L95 254L95 285L111 285L111 269L142 269L142 254L158 254L158 238L174 238L174 206L158 206z"/>
<path style="fill:#ffffff; stroke:none;" d="M301 206L301 285L285 285L285 380L317 380L317 364L332 364L332 349L348 349L348 301L364 301L364 206L301 206z"/>
<path style="fill:#675a59; stroke:none;" d="M63 222L63 238L79 238L79 222L63 222M127 222L127 238L158 238L158 222L127 222M47 238L47 254L63 254L63 238L47 238M111 238L111 254L127 254L127 238L111 238z"/>
<path style="fill:#827e93; stroke:none;" d="M396 238L396 254L412 254L412 238L396 238z"/>
<path style="fill:#675a59; stroke:none;" d="M32 269L32 285L63 285L63 269L32 269M79 269L79 285L95 285L95 269L79 269z"/>
<path style="fill:#444048; stroke:none;" d="M285 269L285 285L301 285L301 269L285 269M380 269L380 285L396 285L396 269L380 269z"/>
<path style="fill:#231a18; stroke:none;" d="M32 285L32 301L47 301L47 285L32 285z"/>
<path style="fill:#444048; stroke:none;" d="M364 317L364 333L380 333L380 317L364 317z"/>
<path style="fill:#675a59; stroke:none;" d="M364 333L364 349L380 349L380 333L364 333M317 364L317 380L332 380L332 364L317 364z"/>
<path style="fill:#444048; stroke:none;" d="M348 364L348 380L364 380L364 364L348 364z"/>
</svg>
